<svg width="43" height="42" viewBox="0 0 43 42" fill="none" xmlns="http://www.w3.org/2000/svg">
<path d="M30.5149 19.4272C32.118 18.5894 33.6365 17.5986 35.0491 16.4688C37.1232 14.7645 40.9981 10.7288 37.0589 8.60644C34.0683 6.9986 29.8718 10.2947 27.5887 11.9347C27.1867 12.2402 26.7848 12.5296 26.3989 12.8511C28.0067 6.82174 29.1804 -0.895879 23.746 0.0849025C20.9965 0.567254 20.1444 3.58999 19.7585 5.93744C19.3324 8.65456 19.0427 11.3913 18.8903 14.1374C16.3499 8.96017 11.5103 0.728037 7.89263 4.84411C6.12401 6.8539 7.47463 10.359 8.63227 12.3045C10.1 14.5967 11.9681 16.6064 14.1471 18.2374C12.3017 17.7467 10.4277 17.3708 8.53581 17.1119C5.88287 16.7421 1.71857 15.7613 0.35191 18.977C-1.40063 23.1413 3.69619 24.3311 8.92167 24.5401C5.28796 26.7107 2.26522 29.7817 1.73463 33.7691C1.62208 34.6213 2.37778 35.2323 3.05307 35.5217C6.57424 36.9527 10.4009 34.2836 13.1342 32.306C13.901 31.7295 14.6363 31.1123 15.3369 30.457C14.7704 33.4776 14.4212 36.535 14.2918 39.6056C14.2942 39.9987 14.4239 40.3805 14.6617 40.6936C14.8994 41.0067 15.2322 41.2342 15.6103 41.342C19.5495 42.3871 21.2216 38.9142 21.7683 35.6021C22.0899 33.6887 22.3311 31.7754 22.5401 29.846C22.9099 30.8429 23.3118 31.8236 23.7781 32.8044C25.3859 36.0201 27.7655 41.1973 31.962 41.0205C32.3572 41.0172 32.7406 40.8851 33.0539 40.6443C33.3673 40.4035 33.5936 40.067 33.6985 39.686C34.4702 35.9236 32.3318 32.8848 30.4024 29.7656C29.6735 28.608 28.9179 27.4664 28.1354 26.3409C29.9993 27.1353 31.9312 27.7596 33.9075 28.206C36.3997 28.7527 41.0624 30.1354 42.3647 26.9197C44.3424 21.7586 36.9945 20.0221 30.5149 19.4272Z" fill="#FFBAD3"/>
<path d="M25.0158 19.7487C24.6047 18.9372 23.9726 18.2584 23.1922 17.7908C22.4119 17.3232 21.5153 17.0857 20.6058 17.1059C19.6963 17.1261 18.8111 17.4031 18.0523 17.9048C17.2935 18.4066 16.692 19.1127 16.3174 19.9416C15.9542 20.7992 15.8691 21.749 16.0738 22.6575C16.2786 23.566 16.763 24.3875 17.4589 25.0063C18.0724 25.803 18.9611 26.3419 19.951 26.5177C20.8146 26.6733 21.7045 26.5854 22.521 26.2639C23.3375 25.9424 24.0484 25.4 24.5741 24.6975C25.0998 23.9949 25.4195 23.1598 25.4975 22.2858C25.5755 21.4117 25.4087 20.5333 25.0158 19.7487Z" fill="#FFF59A"/>
</svg>
