<svg width="132" height="59" viewBox="0 0 132 59" fill="none" xmlns="http://www.w3.org/2000/svg">
<path d="M10.2539 1.36426L121.254 1.36426C126.501 1.36426 130.754 5.61755 130.754 10.8643V38.3341C130.754 41.8995 127.864 44.7898 124.298 44.7898C123.368 44.7898 122.794 45.806 123.274 46.6028L129.254 56.5173C129.504 56.9306 129.081 57.4222 128.635 57.2374L100.534 45.59C99.2594 45.0617 97.8933 44.7898 96.5136 44.7898H65.7539H10.2539C5.0072 44.7898 0.753906 40.5365 0.753906 35.2898L0.753906 10.8643C0.753906 5.61755 5.0072 1.36426 10.2539 1.36426Z" fill="white" stroke="#BBBBBB"/>
<path d="M17.6052 26.864V16.6822H18.5349L18.5349 21.3505H24.3119V16.6822H25.2416V26.864H24.3119V22.1857H18.5349V26.864H17.6052ZM30.8445 27.0231C30.132 27.0231 29.5155 26.8574 28.9951 26.5259C28.4748 26.1912 28.0721 25.7288 27.787 25.1389C27.5053 24.5456 27.3644 23.8628 27.3644 23.0906C27.3644 22.3216 27.5053 21.6389 27.787 21.0423C28.0721 20.4424 28.4648 19.9734 28.9653 19.6353C29.4691 19.2939 30.0508 19.1232 30.7103 19.1232C31.1246 19.1232 31.524 19.1995 31.9085 19.3519C32.2929 19.5011 32.6376 19.7314 32.9426 20.043C33.2508 20.3512 33.4944 20.7407 33.6734 21.2113C33.8524 21.6786 33.9418 22.2321 33.9418 22.8718V23.3093H27.9759V22.5288H33.037C33.037 22.0383 32.9376 21.5974 32.7387 21.2063C32.5432 20.8119 32.2697 20.5004 31.9184 20.2717C31.5704 20.043 31.1677 19.9286 30.7103 19.9286C30.2264 19.9286 29.8005 20.0579 29.4326 20.3164C29.0647 20.575 28.7764 20.9163 28.5676 21.3406C28.3621 21.7648 28.2577 22.2288 28.2543 22.7326V23.2C28.2543 23.8065 28.3588 24.3368 28.5676 24.7909C28.7797 25.2416 29.0796 25.5913 29.4674 25.8399C29.8552 26.0884 30.3142 26.2127 30.8445 26.2127C31.2058 26.2127 31.5223 26.1564 31.7941 26.0437C32.0692 25.931 32.2996 25.7802 32.4852 25.5913C32.6741 25.3991 32.8166 25.1886 32.9127 24.9599L33.7529 25.2333C33.6369 25.5548 33.4463 25.8515 33.1812 26.1232C32.9194 26.395 32.5912 26.6138 32.1968 26.7795C31.8057 26.9419 31.355 27.0231 30.8445 27.0231ZM36.276 29.7276C36.1003 29.7276 35.9363 29.7111 35.7838 29.6779C35.6314 29.6448 35.5104 29.6083 35.4209 29.5686L35.6595 28.788C35.9611 28.8808 36.2296 28.914 36.4649 28.8875C36.7003 28.8642 36.9091 28.7582 37.0914 28.5693C37.2736 28.3837 37.436 28.0986 37.5786 27.7142L37.857 26.9386L35.048 19.2276H36.0075L38.2746 25.6957H38.3442L40.6112 19.2276H41.5708L38.3392 28.0721C38.2033 28.44 38.036 28.7466 37.8371 28.9919C37.6382 29.2404 37.4079 29.4244 37.146 29.5437C36.8875 29.6663 36.5975 29.7276 36.276 29.7276ZM50.2474 19.2276V19.9982H46.6032V19.2276H50.2474ZM47.7417 17.3981H48.6317V24.8704C48.6317 25.1886 48.6863 25.4388 48.7957 25.6211C48.9051 25.8001 49.0476 25.9277 49.2233 26.0039C49.3989 26.0768 49.5862 26.1133 49.7851 26.1133C49.9011 26.1133 50.0005 26.1067 50.0834 26.0934C50.1662 26.0768 50.2391 26.0603 50.3021 26.0437L50.491 26.8441C50.4049 26.8773 50.2988 26.9071 50.1728 26.9336C50.0469 26.9634 49.8911 26.9784 49.7055 26.9784C49.3807 26.9784 49.0675 26.9071 48.7659 26.7646C48.4676 26.6221 48.2223 26.4099 48.0301 26.1282C47.8379 25.8465 47.7417 25.4968 47.7417 25.0792V17.3981ZM53.3062 22.0913V26.864H52.4213V16.6822H53.3062V20.4258H53.3857C53.5647 20.0314 53.8415 19.7165 54.216 19.4812C54.5938 19.2459 55.0711 19.1282 55.6478 19.1282C56.1649 19.1282 56.6189 19.2343 57.01 19.4464C57.4011 19.6585 57.7061 19.9717 57.9248 20.386C58.1436 20.8003 58.2529 21.3107 58.2529 21.9173V26.864H57.363V21.972C57.363 21.3422 57.1873 20.8467 56.836 20.4855C56.488 20.1209 56.0174 19.9386 55.4241 19.9386C55.0164 19.9386 54.6535 20.0248 54.3353 20.1971C54.0171 20.3695 53.7652 20.618 53.5796 20.9428C53.3973 21.2643 53.3062 21.6472 53.3062 22.0913ZM63.6707 27.0231C62.9581 27.0231 62.3416 26.8574 61.8213 26.5259C61.3009 26.1912 60.8982 25.7288 60.6132 25.1389C60.3315 24.5456 60.1906 23.8628 60.1906 23.0906C60.1906 22.3216 60.3315 21.6389 60.6132 21.0423C60.8982 20.4424 61.291 19.9734 61.7915 19.6353C62.2952 19.2939 62.8769 19.1232 63.5365 19.1232C63.9508 19.1232 64.3502 19.1995 64.7346 19.3519C65.1191 19.5011 65.4638 19.7314 65.7687 20.043C66.077 20.3512 66.3206 20.7407 66.4996 21.2113C66.6785 21.6786 66.768 22.2321 66.768 22.8718V23.3093H60.8021V22.5288H65.8632C65.8632 22.0383 65.7638 21.5974 65.5649 21.2063C65.3693 20.8119 65.0959 20.5004 64.7446 20.2717C64.3966 20.043 63.9939 19.9286 63.5365 19.9286C63.0526 19.9286 62.6267 20.0579 62.2588 20.3164C61.8909 20.575 61.6025 20.9163 61.3937 21.3406C61.1882 21.7648 61.0838 22.2288 61.0805 22.7326V23.2C61.0805 23.8065 61.1849 24.3368 61.3937 24.7909C61.6059 25.2416 61.9058 25.5913 62.2936 25.8399C62.6814 26.0884 63.1404 26.2127 63.6707 26.2127C64.032 26.2127 64.3485 26.1564 64.6203 26.0437C64.8954 25.931 65.1257 25.7802 65.3113 25.5913C65.5003 25.3991 65.6428 25.1886 65.7389 24.9599L66.5791 25.2333C66.4631 25.5548 66.2725 25.8515 66.0074 26.1232C65.7455 26.395 65.4174 26.6138 65.023 26.7795C64.6319 26.9419 64.1811 27.0231 63.6707 27.0231ZM68.7181 26.864V19.2276H69.5782V20.4009H69.6428C69.7953 20.0165 70.0605 19.7066 70.4383 19.4713C70.8195 19.2326 71.2503 19.1133 71.7309 19.1133C71.8038 19.1133 71.885 19.115 71.9745 19.1183C72.064 19.1216 72.1386 19.1249 72.1982 19.1282V20.0281C72.1585 20.0214 72.0889 20.0115 71.9894 19.9982C71.89 19.985 71.7823 19.9784 71.6663 19.9784C71.2686 19.9784 70.9139 20.0629 70.6024 20.2319C70.2941 20.3976 70.0505 20.628 69.8715 20.923C69.6926 21.2179 69.6031 21.5544 69.6031 21.9322V26.864H68.7181ZM76.5633 27.0231C75.8507 27.0231 75.2342 26.8574 74.7139 26.5259C74.1935 26.1912 73.7908 25.7288 73.5058 25.1389C73.224 24.5456 73.0832 23.8628 73.0832 23.0906C73.0832 22.3216 73.224 21.6389 73.5058 21.0423C73.7908 20.4424 74.1836 19.9734 74.684 19.6353C75.1878 19.2939 75.7695 19.1232 76.4291 19.1232C76.8434 19.1232 77.2427 19.1995 77.6272 19.3519C78.0117 19.5011 78.3564 19.7314 78.6613 20.043C78.9695 20.3512 79.2132 20.7407 79.3921 21.2113C79.5711 21.6786 79.6606 22.2321 79.6606 22.8718V23.3093H73.6947V22.5288H78.7558C78.7558 22.0383 78.6563 21.5974 78.4575 21.2063C78.2619 20.8119 77.9885 20.5004 77.6372 20.2717C77.2891 20.043 76.8864 19.9286 76.4291 19.9286C75.9452 19.9286 75.5193 20.0579 75.1514 20.3164C74.7835 20.575 74.4951 20.9163 74.2863 21.3406C74.0808 21.7648 73.9764 22.2288 73.9731 22.7326V23.2C73.9731 23.8065 74.0775 24.3368 74.2863 24.7909C74.4984 25.2416 74.7984 25.5913 75.1862 25.8399C75.5739 26.0884 76.033 26.2127 76.5633 26.2127C76.9246 26.2127 77.2411 26.1564 77.5129 26.0437C77.788 25.931 78.0183 25.7802 78.2039 25.5913C78.3928 25.3991 78.5354 25.1886 78.6315 24.9599L79.4717 25.2333C79.3557 25.5548 79.1651 25.8515 78.8999 26.1232C78.6381 26.395 78.31 26.6138 77.9156 26.7795C77.5245 26.9419 77.0737 27.0231 76.5633 27.0231Z" fill="black"/>
<path d="M105.979 12.8282L106.226 12.864L106.474 12.8998C106.474 12.8998 106.474 12.8998 106.474 12.8998C106.285 14.2054 107.148 15.3665 108.355 15.9611C109.562 16.5558 111.009 16.5327 111.929 15.5874L112.097 15.751L112.108 15.7618L105.979 12.8282ZM105.979 12.8282C105.79 14.1339 104.633 15.003 103.307 15.2314C101.981 15.4598 100.601 15.0278 99.9859 13.8605L99.7647 13.977M105.979 12.8282L99.7647 13.977M99.7647 13.977L99.5435 14.0935C100.158 15.2608 99.7331 16.6438 98.7947 17.6079C97.8562 18.5721 96.4852 19.0342 95.3017 18.4511L95.1912 18.6754L95.1906 18.6765L95.0807 18.8996C96.2642 19.4826 96.7333 20.8514 96.5407 22.183C96.3482 23.5146 95.5106 24.6944 94.2105 24.9184C94.2105 24.9184 94.2105 24.9184 94.2105 24.9184L94.2518 25.1582L99.7647 13.977ZM115.163 21.5621L115.163 21.5633L115.163 21.5621ZM115.163 21.5621L115.121 21.3169C115.121 21.3169 115.121 21.3169 115.121 21.3169M115.163 21.5621L115.121 21.3169M115.121 21.3169C113.821 21.5408 112.637 20.7092 112.01 19.5187C111.383 18.3283 111.367 16.8815 112.287 15.9361L112.119 15.7725L115.121 21.3169ZM94.2529 25.1647L94.254 25.1712L94.2954 25.4111C95.5955 25.1871 96.7796 26.0187 97.4065 27.2092C98.0334 28.3997 98.0492 29.8465 97.129 30.7919L97.3081 30.9663L97.4873 31.1406C98.4075 30.1953 99.8542 30.1721 101.061 30.7667C102.268 31.3613 103.131 32.5225 102.943 33.8282L103.19 33.864L103.437 33.8998C103.626 32.5941 104.783 31.725 106.109 31.4966C107.435 31.2683 108.816 31.7002 109.43 32.8675L109.652 32.751L109.873 32.6345C109.258 31.4673 109.683 30.0842 110.622 29.1201C111.56 28.156 112.931 27.6938 114.115 28.2769L114.225 28.0526L114.336 27.8284C114.335 27.8283 114.335 27.8282 114.335 27.8282C113.152 27.245 112.683 25.8765 112.876 24.5451C113.068 23.2135 113.906 22.0336 115.206 21.8097C115.206 21.8097 115.206 21.8097 115.206 21.8097L115.166 21.5785L94.2529 25.1647Z" fill="#FFF59A" stroke="#BBBBBB" stroke-width="0.5"/>
<path d="M106.214 21.0908C106.058 20.4474 105.761 19.9893 105.505 20.0335C105.218 20.0829 105.092 20.7458 105.224 21.5138C105.357 22.2819 105.697 22.8645 105.984 22.8149C106.236 22.7715 106.363 22.257 106.302 21.6136L105.759 21.5067L106.214 21.0908Z" fill="#000400"/>
<path d="M103.559 21.5479C103.404 20.9044 103.107 20.4463 102.851 20.4905C102.564 20.5399 102.438 21.2028 102.57 21.9708C102.702 22.739 103.043 23.3216 103.33 23.272C103.581 23.2286 103.709 22.7143 103.648 22.0706L103.105 21.9638L103.559 21.5479Z" fill="#000400"/>
<path d="M106.978 23.7708C107.182 24.951 106.389 26.0726 105.209 26.2759C104.029 26.4791 102.907 25.6871 102.704 24.5068L106.978 23.7708Z" fill="#000400"/>
<path d="M98.9078 23.9938C98.7793 23.2471 99.2801 22.5378 100.027 22.409C100.774 22.2805 101.483 22.7814 101.612 23.528C101.74 24.2745 101.239 24.984 100.493 25.1128C99.7459 25.2413 99.0363 24.7404 98.9078 23.9938Z" fill="#FFBAD3"/>
<path d="M107.681 22.4828C107.553 21.7361 108.054 21.0268 108.8 20.898C109.547 20.7695 110.256 21.2704 110.385 22.0171C110.514 22.7637 110.013 23.4731 109.266 23.6018C108.519 23.7305 107.81 23.2295 107.681 22.4828Z" fill="#FFBAD3"/>
</svg>
