<svg width="134" height="43" viewBox="0 0 134 43" fill="none" xmlns="http://www.w3.org/2000/svg">
<path d="M50.414 14.8826H50.62C59.1149 -14.4636 80.8929 14.4193 53.1427 20.0311C56.0774 25.1796 58.1367 35.6309 51.8556 38.1022C51.8556 38.1022 50.3111 38.4626 49.3329 38.4626C40.0656 38.3081 43.9785 25.0251 46.7072 19.8766C44.2874 18.9499 42.2795 17.9717 40.6835 16.9935C25.7014 6.43916 47.7368 -8.33692 50.414 14.8826Z" fill="#3A3A3A"/>
<path d="M32.6254 13.8397C32.5739 20.996 37.5164 36.3899 27.271 37.3167C17.1285 36.4929 24.1304 17.6495 24.2334 10.9565H24.0274C20.372 28.2039 12.2375 26.9168 9.56025 10.4932H9.35432C9.35432 17.1347 15.7899 34.9484 5.90485 35.9781H5.18406C-3.92872 35.1028 1.73459 15.2298 1.78608 8.89715C4.66921 -5.05518 15.9958 3.49126 16.7681 13.9941H16.974C19.2394 -3.25322 31.6986 -3.97401 32.6254 13.8397Z" fill="#3A3A3A"/>
<path d="M131.327 26.3191H133.432L127.434 42.767H125.329L127.313 37.2844L123.377 26.3191H125.548L128.311 34.565L131.327 26.3191Z" fill="#3A3A3A"/>
<path d="M120.617 34.3238L122.393 35.2777C121.395 36.6703 119.805 37.5695 118.018 37.5695C114.991 37.5695 112.535 34.9817 112.535 31.8017C112.535 28.5999 114.991 26.0121 118.018 26.0121C119.805 26.0121 121.395 26.9112 122.393 28.3148L120.617 29.2688C119.959 28.4573 118.983 27.9968 118.018 27.9968C116.044 27.9968 114.52 29.7622 114.52 31.8017C114.52 33.8523 116.066 35.5848 118.018 35.5848C119.038 35.5848 119.992 35.0694 120.617 34.3238Z" fill="#3A3A3A"/>
<path d="M111.205 30.4421V37.2844H109.209V30.9136C109.209 29.3126 107.916 28.0297 106.326 28.0297C104.736 28.0297 103.442 29.3126 103.442 30.9136V37.2844H101.457V26.3191H103.442V27.613C104.22 26.6371 105.426 26.0121 106.775 26.0121C109.231 26.0121 111.205 27.9968 111.205 30.4421Z" fill="#3A3A3A"/>
<path d="M94.2024 37.5695C91.1759 37.5695 88.7197 34.9817 88.7197 31.8017C88.7197 28.5999 91.1759 26.0121 94.2024 26.0121C97.5248 26.0121 99.9262 28.9398 99.6192 32.5145H90.847C91.1102 34.258 92.437 35.5738 94.2024 35.5848C95.4414 35.5848 96.5051 34.9049 97.1411 33.7865L99.1587 34.258C98.2814 36.2098 96.3954 37.5695 94.2024 37.5695ZM90.7812 30.9684H97.6235C97.4152 29.2249 95.9568 27.7775 94.2024 27.7775C92.437 27.7775 91.0224 29.181 90.7812 30.9684Z" fill="#3A3A3A"/>
<path d="M84.9292 26.3191H86.9139V37.6134C86.9139 40.5521 84.1945 42.767 81.2339 42.767C78.9312 42.767 76.7382 41.1222 76.0035 39.0279L77.8237 38.1836C78.2404 39.6639 79.7536 40.7714 81.2339 40.7714C83.1199 40.7714 84.9292 39.4117 84.9292 37.6134V35.5409C84.2055 36.7471 82.9884 37.5695 81.4094 37.5695C78.3062 37.5695 75.7842 34.9817 75.7842 31.8018C75.7842 28.6109 78.3062 26.0231 81.4094 26.0231C82.9884 26.0231 84.2055 26.8455 84.9292 28.0516V26.3191ZM81.4313 35.6506C83.4599 35.6506 84.8086 33.8852 84.8086 31.8018C84.8086 29.6964 83.4489 27.942 81.4313 27.942C79.4246 27.942 77.8128 29.6635 77.8128 31.8018C77.8128 33.951 79.4575 35.6506 81.4313 35.6506Z" fill="#3A3A3A"/>
<path d="M67.386 21.933H69.7655L75.3358 37.2844H73.2305L72.112 34.225H65.0285L63.921 37.2844H61.8047L67.386 21.933ZM65.7522 32.2294H71.3883L68.5703 24.4989L65.7522 32.2294Z" fill="#3A3A3A"/>
<path d="M79.748 8.00076C80.3372 7.69278 80.8954 7.3286 81.4146 6.91329C82.177 6.28682 83.6014 4.80338 82.1534 4.02325C81.0541 3.43223 79.5116 4.64381 78.6723 5.24664C78.5246 5.35894 78.3768 5.46531 78.235 5.58352C78.826 3.36722 79.2574 0.530372 77.2598 0.890889C76.2492 1.06819 75.9359 2.17929 75.7941 3.04217C75.6375 4.04093 75.531 5.04691 75.475 6.05633C74.5412 4.15327 72.7622 1.12729 71.4324 2.64028C70.7823 3.37905 71.2788 4.66745 71.7043 5.38257C72.2438 6.22516 72.9305 6.96386 73.7315 7.56341C73.0531 7.38302 72.3643 7.24485 71.6689 7.1497C70.6937 7.01377 69.163 6.65325 68.6606 7.83528C68.0164 9.366 69.8899 9.80334 71.8107 9.88017C70.475 10.678 69.3639 11.8069 69.1689 13.2726C69.1275 13.5858 69.4053 13.8104 69.6535 13.9168C70.9478 14.4428 72.3544 13.4617 73.3591 12.7348C73.641 12.5229 73.9113 12.296 74.1688 12.0551C73.9606 13.1654 73.8322 14.2893 73.7847 15.4179C73.7855 15.5624 73.8332 15.7028 73.9206 15.8179C74.008 15.933 74.1303 16.0166 74.2693 16.0562C75.7173 16.4404 76.3319 15.1638 76.5329 13.9463C76.6511 13.243 76.7397 12.5397 76.8166 11.8305C76.9525 12.1969 77.1002 12.5575 77.2716 12.918C77.8626 14.1 78.7373 16.003 80.2799 15.938C80.4251 15.9368 80.5661 15.8883 80.6813 15.7998C80.7964 15.7112 80.8796 15.5876 80.9182 15.4475C81.2019 14.0645 80.4158 12.9475 79.7066 11.801C79.4387 11.3754 79.1609 10.9558 78.8733 10.5421C79.5584 10.8341 80.2685 11.0636 80.995 11.2277C81.9111 11.4286 83.625 11.9369 84.1037 10.7549C84.8307 8.85772 82.1297 8.21943 79.748 8.00076Z" fill="#FFBAD3"/>
<path d="M77.7264 8.11896C77.5753 7.82066 77.3429 7.57116 77.0561 7.39927C76.7692 7.22738 76.4396 7.14012 76.1053 7.14753C75.771 7.15495 75.4456 7.25675 75.1667 7.44119C74.8878 7.62562 74.6667 7.88517 74.529 8.18988C74.3955 8.50511 74.3642 8.85425 74.4395 9.1882C74.5148 9.52214 74.6928 9.82409 74.9486 10.0516C75.1741 10.3444 75.5008 10.5425 75.8647 10.6071C76.1821 10.6643 76.5092 10.632 76.8093 10.5138C77.1095 10.3957 77.3708 10.1963 77.564 9.93803C77.7572 9.67977 77.8748 9.37282 77.9034 9.05154C77.9321 8.73027 77.8708 8.40736 77.7264 8.11896Z" fill="#FFF59A"/>
</svg>
