<svg width="29" height="28" viewBox="0 0 29 28" fill="none" xmlns="http://www.w3.org/2000/svg">
<g clip-path="url(#clip0_72_5381)">
<path d="M17.3497 1.19101L17.3509 1.19007C19.1479 -0.334326 21.9147 0.813198 22.1097 3.16202L22.1097 3.16234C22.1865 4.08106 22.5865 4.94283 23.2385 5.59463C23.8905 6.24643 24.7524 6.64609 25.6711 6.72265L25.6713 6.72266C28.0179 6.9175 29.1638 9.68376 27.6419 11.4819L27.6418 11.4819C27.0464 12.1857 26.7197 13.0777 26.7197 13.9996C26.7197 14.9214 27.0464 15.8134 27.6418 16.5172L27.6422 16.5176C29.1668 18.3157 28.0191 21.0817 25.6711 21.2775L25.671 21.2775C24.7525 21.3543 23.891 21.7542 23.2394 22.406C22.5878 23.0578 22.1882 23.9194 22.1117 24.8379L22.1116 24.8381C21.9168 27.1853 19.1455 28.3309 17.3529 26.8101L17.3526 26.8099C16.6491 26.2137 15.7569 25.8866 14.8347 25.8866C13.9126 25.8866 13.0204 26.2137 12.3169 26.8099L12.3167 26.81C10.5197 28.3343 7.75281 27.1861 7.55785 24.8381L7.55783 24.8379C7.4812 23.9191 7.08132 23.0571 6.42924 22.4053C5.77716 21.7534 4.91511 21.3538 3.99625 21.2775C1.6495 21.0816 0.503733 18.3162 2.02568 16.5171C2.62222 15.8136 2.94994 14.9214 2.95057 13.999C2.95119 13.0763 2.62453 12.1834 2.02868 11.479L2.02823 11.4785C0.503758 9.6813 1.65149 6.91462 3.99921 6.71968L3.99935 6.71967C4.9181 6.64311 5.77999 6.24345 6.432 5.59165C7.08401 4.93985 7.48395 4.07808 7.5608 3.15936L7.56083 3.15904C7.75572 0.811032 10.5269 -0.333842 12.3196 1.18707L12.3202 1.18759C13.0232 1.78199 13.9138 2.10842 14.8344 2.10904C15.7549 2.10967 16.646 1.78445 17.3497 1.19101Z" fill="#FFF59A" stroke="#646464"/>
</g>
<defs>
<clipPath id="clip0_72_5381">
<rect width="28" height="28" fill="white" transform="translate(0.832031)"/>
</clipPath>
</defs>
</svg>
